:FULLY-SPECIFIED
:FORCE-ALL-JOINTS-BE-3DOF
:DEGREES
356
root 9.4235 16.8179 13.9062 6.38181 6.32216 -0.90558
lfemur -12.5757 5.58873 -18.0545
ltibia 38.932 -0 0
lfoot -9.03907 6.20942 -0.51079
ltoes -5.82336 0 0
rfemur -24.3973 5.13359 24.3839
rtibia 33.6973 -0 0
rfoot -14.7663 1.73239 -0.0428943
rtoes -18.2124 0 0
lowerback -6.42609 -1.64994 -1.77931
upperback -1.0418 -2.14919 2.53627
thorax 2.7738 -1.09675 3.37846
lowerneck -19.7092 -5.78296 -12.7634
upperneck 21.3311 -7.48195 12.9613
head 11.1771 -2.9468 5.72737
lclavicle -6.98231e-15 -4.17448e-14 0
lhumerus -39.4647 -24.8107 99.9485
lradius 32.1726 -0 0
lwrist 10.8659 0 0
lhand -11.7705 -23.0156 -0.0425194
lfingers 7.12502 -0 0
lthumb 14.2761 6.4419 -0.0486016
rclavicle -6.98231e-15 -4.17448e-14 0
rhumerus -39.782 13.6447 -84.1797
rradius 39.0147 -0 0
rwrist -19.866 0 0
rhand -29.9782 -24.5043 -0.0033146
rfingers 7.12502 -0 0
rthumb -3.29635 -54.4551 -0.0033762
357
root 9.41588 16.8355 14.0447 6.3688 6.21199 -1.03962
lfemur -14.0551 5.59021 -18.0378
ltibia 40.3739 -0 0
lfoot -9.44919 6.5875 -0.491818
ltoes -5.47001 0 0
rfemur -23.7069 5.2282 24.6892
rtibia 33.45 -0 0
rfoot -15.1064 1.77064 -0.0413039
rtoes -18.1769 0 0
lowerback -6.36798 -1.53948 -1.65728
upperback -1.02894 -2.01091 2.54507
thorax 2.73748 -1.02642 3.3347
lowerneck -19.7428 -5.81735 -12.7486
upperneck 21.3543 -7.5286 12.9418
head 11.198 -2.96768 5.71034
lclavicle -6.98231e-15 -4.17448e-14 0
lhumerus -39.9355 -24.377 99.8242
lradius 31.9299 -0 0
lwrist 10.9749 0 0
lhand -11.9504 -22.944 -0.0409441
lfingers 7.12502 -0 0
lthumb 14.1027 6.52691 -0.046801
rclavicle -6.98231e-15 -4.17448e-14 0
rhumerus -39.398 13.9316 -84.2061
rradius 39.352 -0 0
rwrist -20.0457 0 0
rhand -30.043 -24.4888 -0.00319183
rfingers 7.12502 -0 0
rthumb -3.35894 -54.4388 -0.00325115
358
root 9.40826 16.8532 14.1832 6.35606 6.1018 -1.1736
lfemur -15.5345 5.59211 -18.0212
ltibia 41.8158 -0 0
lfoot -9.85916 6.96544 -0.47014
ltoes -5.11666 0 0
rfemur -23.0158 5.31913 24.9956
rtibia 33.2026 -0 0
rfoot -15.4465 1.80888 -0.0394865
rtoes -18.1413 0 0
lowerback -6.30963 -1.42915 -1.53514
upperback -1.01606 -1.87263 2.55391
thorax 2.7011 -0.956126 3.29089
lowerneck -19.7764 -5.85174 -12.7338
upperneck 21.3775 -7.57524 12.9223
head 11.2189 -2.98855 5.6933
lclavicle -6.98231e-15 -4.17448e-14 0
lhumerus -40.4057 -23.9443 99.6964
lradius 31.6873 -0 0
lwrist 11.0838 0 0
lhand -12.1304 -22.8724 -0.0391438
lfingers 7.12502 -0 0
lthumb 13.9294 6.61192 -0.0447431
rclavicle -6.98231e-15 -4.17448e-14 0
rhumerus -39.0136 14.2186 -84.2305
rradius 39.6894 -0 0
rwrist -20.2255 0 0
rhand -30.1078 -24.4733 -0.00305152
rfingers 7.12502 -0 0
rthumb -3.42153 -54.4224 -0.00310824
359
root 9.40065 16.8708 14.3217 6.34357 5.99157 -1.30754
lfemur -17.0139 5.59444 -18.0047
ltibia 43.2577 -0 0
lfoot -10.269 7.34322 -0.445759
ltoes -4.76331 0 0
rfemur -22.3243 5.40638 25.3031
rtibia 32.9553 -0 0
rfoot -15.7867 1.84711 -0.0374421
rtoes -18.1058 0 0
lowerback -6.25105 -1.31894 -1.4129
upperback -1.00315 -1.73435 2.56278
thorax 2.66467 -0.885856 3.24703
lowerneck -19.81 -5.88612 -12.719
upperneck 21.4008 -7.62188 12.9027
head 11.2399 -3.00942 5.67625
lclavicle -6.98231e-15 -4.17448e-14 0
lhumerus -40.8754 -23.5125 99.5652
lradius 31.4447 -0 0
lwrist 11.1928 0 0
lhand -12.3104 -22.8007 -0.0371184
lfingers 7.12502 -0 0
lthumb 13.7561 6.69692 -0.0424281
rclavicle -6.98231e-15 -4.17448e-14 0
rhumerus -38.6288 14.5059 -84.2529
rradius 40.0267 -0 0
rwrist -20.4052 0 0
rhand -30.1726 -24.4578 -0.00289368
rfingers 7.12502 -0 0
rthumb -3.48413 -54.4061 -0.00294746
360
root 9.39303 16.8884 14.4601 6.33135 5.88131 -1.44142
lfemur -18.4933 5.59719 -17.9882
ltibia 44.6997 -0 0
lfoot -10.6786 7.72081 -0.418677
ltoes -4.40996 0 0
rfemur -21.6321 5.48992 25.6118
rtibia 32.7079 -0 0
rfoot -16.1268 1.88533 -0.0351708
rtoes -18.0702 0 0
lowerback -6.19224 -1.20885 -1.29055
upperback -0.990228 -1.59608 2.57167
thorax 2.62818 -0.815614 3.20314
lowerneck -19.8436 -5.92048 -12.7041
upperneck 21.424 -7.66851 12.8831
head 11.2608 -3.03028 5.6592
lclavicle -6.98231e-15 -4.17448e-14 0
lhumerus -41.3447 -23.0818 99.4305
lradius 31.2021 -0 0
lwrist 11.3017 0 0
lhand -12.4903 -22.7291 -0.0348682
lfingers 7.12502 -0 0
lthumb 13.5827 6.78191 -0.0398559
rclavicle -6.98231e-15 -4.17448e-14 0
rhumerus -38.2437 14.7932 -84.2733
rradius 40.3641 -0 0
rwrist -20.585 0 0
rhand -30.2375 -24.4423 -0.0027183
rfingers 7.12502 -0 0
rthumb -3.54672 -54.3897 -0.00276882
361
root 9.38541 16.9061 14.5986 6.31939 5.77103 -1.57525
lfemur -19.9727 5.60036 -17.9718
ltibia 46.1416 -0 0
lfoot -11.0881 8.09819 -0.388896
ltoes -4.05661 0 0
rfemur -20.9394 5.56974 25.9214
rtibia 32.4606 -0 0
rfoot -16.4669 1.92353 -0.0326726
rtoes -18.0347 0 0
lowerback -6.1332 -1.09889 -1.16809
upperback -0.977282 -1.45781 2.5806
thorax 2.59164 -0.745401 3.15919
lowerneck -19.8773 -5.95484 -12.6892
upperneck 21.4473 -7.71513 12.8635
head 11.2817 -3.05113 5.64213
lclavicle -6.98231e-15 -4.17448e-14 0
lhumerus -41.8136 -22.652 99.2924
lradius 30.9594 -0 0
lwrist 11.4107 0 0
lhand -12.6703 -22.6575 -0.032393
lfingers 7.12502 -0 0
lthumb 13.4094 6.86689 -0.0370267
rclavicle -6.98231e-15 -4.17448e-14 0
rhumerus -37.8581 15.0807 -84.2918
rradius 40.7014 -0 0
rwrist -20.7647 0 0
rhand -30.3023 -24.4268 -0.00252538
rfingers 7.12502 -0 0
rthumb -3.60931 -54.3734 -0.00257232
362
root 9.37779 16.9237 14.7371 6.30769 5.66072 -1.70903
lfemur -21.4521 5.60396 -17.9555
ltibia 47.5835 -0 0
lfoot -11.4974 8.47535 -0.356421
ltoes -3.70326 0 0
rfemur -20.2462 5.64583 26.2321
rtibia 32.2132 -0 0
rfoot -16.807 1.96172 -0.0299478
rtoes -17.9991 0 0
lowerback -6.07392 -0.989063 -1.04552
upperback -0.964316 -1.31954 2.58956
thorax 2.55505 -0.675215 3.11521
lowerneck -19.9109 -5.98919 -12.6743
upperneck 21.4706 -7.76174 12.8438
head 11.3027 -3.07198 5.62506
lclavicle -6.98231e-15 -4.17448e-14 0
lhumerus -42.2821 -22.2234 99.151
lradius 30.7168 -0 0
lwrist 11.5197 0 0
lhand -12.8503 -22.5859 -0.0296929
lfingers 7.12502 -0 0
lthumb 13.2361 6.95187 -0.0339403
rclavicle -6.98231e-15 -4.17448e-14 0
rhumerus -37.4721 15.3683 -84.3083
rradius 41.0387 -0 0
rwrist -20.9445 0 0
rhand -30.3671 -24.4113 -0.00231493
rfingers 7.12502 -0 0
rthumb -3.6719 -54.357 -0.00235796
363
root 9.37018 16.9413 14.8756 6.29625 5.55038 -1.84277
lfemur -22.9315 5.60797 -17.9393
ltibia 49.0254 -0 0
lfoot -11.9064 8.85227 -0.321253
ltoes -3.34991 0 0
rfemur -19.5525 5.71817 26.5436
rtibia 31.9659 -0 0
rfoot -17.1471 1.99989 -0.0269963
rtoes -17.9636 0 0
lowerback -6.01441 -0.879359 -0.92284
upperback -0.951329 -1.18127 2.59855
thorax 2.51841 -0.605057 3.07118
lowerneck -19.9446 -6.02353 -12.6594
upperneck 21.4939 -7.80834 12.8242
head 11.3236 -3.09282 5.60798
lclavicle -6.98231e-15 -4.17448e-14 0
lhumerus -42.7504 -21.7958 99.0062
lradius 30.4742 -0 0
lwrist 11.6286 0 0
lhand -13.0302 -22.5143 -0.0267679
lfingers 7.12502 -0 0
lthumb 13.0628 7.03683 -0.030597
rclavicle -6.98231e-15 -4.17448e-14 0
rhumerus -37.0857 15.656 -84.3228
rradius 41.3761 -0 0
rwrist -21.1242 0 0
rhand -30.4319 -24.3958 -0.00208694
rfingers 7.12502 -0 0
rthumb -3.7345 -54.3406 -0.00212573
364
root 9.36256 16.959 15.0141 6.28508 5.44002 -1.97646
lfemur -24.411 5.61239 -17.9232
ltibia 50.4674 -0 0
lfoot -12.3152 9.22892 -0.283396
ltoes -2.99656 0 0
rfemur -18.8584 5.78675 26.8561
rtibia 31.7185 -0 0
rfoot -17.4872 2.03805 -0.0238183
rtoes -17.928 0 0
lowerback -5.95467 -0.769783 -0.800051
upperback -0.938321 -1.043 2.60757
thorax 2.48171 -0.534927 3.0271
lowerneck -19.9783 -6.05787 -12.6444
upperneck 21.5173 -7.85494 12.8045
head 11.3446 -3.11366 5.5909
lclavicle -6.98231e-15 -4.17448e-14 0
lhumerus -43.2184 -21.3693 98.8582
lradius 30.2316 -0 0
lwrist 11.7376 0 0
lhand -13.2102 -22.4427 -0.0236181
lfingers 7.12502 -0 0
lthumb 12.8895 7.12179 -0.0269966
rclavicle -6.98231e-15 -4.17448e-14 0
rhumerus -36.6988 15.9438 -84.3353
rradius 41.7134 -0 0
rwrist -21.304 0 0
rhand -30.4967 -24.3803 -0.00184141
rfingers 7.12502 -0 0
rthumb -3.79709 -54.3243 -0.00187564
365
root 9.35494 16.9766 15.1526 6.27416 5.32962 -2.1101
lfemur -25.8904 5.61723 -17.9072
ltibia 51.9093 -0 0
lfoot -12.7237 9.6053 -0.242853
ltoes -2.64321 0 0
rfemur -18.1637 5.85156 27.1695
rtibia 31.4712 -0 0
rfoot -17.8273 2.07618 -0.0204138
rtoes -17.8925 0 0
lowerback -5.89469 -0.660334 -0.677152
upperback -0.925291 -0.904737 2.61662
thorax 2.44496 -0.464826 2.98298
lowerneck -20.0119 -6.09219 -12.6295
upperneck 21.5406 -7.90153 12.7848
head 11.3656 -3.13449 5.5738
lclavicle -6.98231e-15 -4.17448e-14 0
lhumerus -43.6863 -20.944 98.7068
lradius 29.9889 -0 0
lwrist 11.8465 0 0
lhand -13.3901 -22.3712 -0.0202435
lfingers 7.12502 -0 0
lthumb 12.7161 7.20673 -0.0231393
rclavicle -6.98231e-15 -4.17448e-14 0
rhumerus -36.3114 16.2317 -84.3458
rradius 42.0508 -0 0
rwrist -21.4837 0 0
rhand -30.5615 -24.3648 -0.00157834
rfingers 7.12502 -0 0
rthumb -3.85968 -54.3079 -0.00160768
366
root 9.34733 16.9943 15.2911 6.2635 5.21921 -2.2437
lfemur -27.3698 5.62248 -17.8914
ltibia 53.3512 -0 0
lfoot -13.132 9.98137 -0.199629
ltoes -2.28987 0 0
rfemur -17.4687 5.91259 27.4836
rtibia 31.2238 -0 0
rfoot -18.1674 2.11429 -0.0167831
rtoes -17.8569 0 0
lowerback -5.83448 -0.551015 -0.55414
upperback -0.91224 -0.766476 2.62571
thorax 2.40815 -0.394753 2.93882
lowerneck -20.0456 -6.12651 -12.6145
upperneck 21.564 -7.94811 12.7651
head 11.3865 -3.15531 5.5567
lclavicle -6.98231e-15 -4.17448e-14 0
lhumerus -44.1541 -20.5198 98.5521
lradius 29.7463 -0 0
lwrist 11.9555 0 0
lhand -13.5701 -22.2996 -0.0166442
lfingers 7.12502 -0 0
lthumb 12.5428 7.29166 -0.0190251
rclavicle -6.98231e-15 -4.17448e-14 0
rhumerus -35.9234 16.5196 -84.3543
rradius 42.3881 -0 0
rwrist -21.6635 0 0
rhand -30.6263 -24.3493 -0.00129775
rfingers 7.12502 -0 0
rthumb -3.92227 -54.2916 -0.00132187
